<?xml version="1.0" encoding="UTF-8" standalone="no"?>
<svg
   xmlns:dc="http://purl.org/dc/elements/1.1/"
   xmlns:cc="http://creativecommons.org/ns#"
   xmlns:rdf="http://www.w3.org/1999/02/22-rdf-syntax-ns#"
   xmlns:svg="http://www.w3.org/2000/svg"
   xmlns="http://www.w3.org/2000/svg"
   id="svg20"
   xml:space="default"
   viewBox="0 0 1024 550"
   y="0px"
   x="0px"
   version="1.1"><metadata
     id="metadata26"><rdf:RDF><cc:Work
         rdf:about=""><dc:format>image/svg+xml</dc:format><dc:type
           rdf:resource="http://purl.org/dc/dcmitype/StillImage" /></cc:Work></rdf:RDF></metadata><defs
     id="defs24" /><style
     id="style2">
#fadein{
opacity: 0;
animation:fadeIn 1s ease-in;
animation-fill-mode:forwards;
}

@keyframes fadeIn { from { opacity:0; } to { opacity:1; } }
</style><g
     style="opacity:0"
     id="fadein"><g
       transform="matrix(1.2115,0,0,1.2115,-108.28,-81.213)"
       id="logo-group"><path
         stroke-miterlimit="2"
         d="m 420.78,450.15 v -28.371 h -9.8384 v -2.8371 h 23.063 v 2.8371 h -9.8384 v 28.371 z"
         style="font-variant-ligatures:none;fill:#d69015;stroke-width:0;stroke-miterlimit:2"
         id="path257602" /><path
         stroke-miterlimit="2"
         d="m 455.39,428 q 1.0982,0 2.105,0.32032 v 2.8371 q -0.96096,-0.4576 -2.105,-0.4576 -1.9677,0 -3.6608,1.0982 -1.6931,1.0982 -2.7456,3.2032 -1.0067,2.0592 -1.0067,4.8963 v 10.25 h -3.1117 v -21.416 h 3.1117 v 4.3014 q 1.2355,-2.3795 3.1117,-3.7066 1.9219,-1.327 4.3014,-1.327 z"
         style="font-variant-ligatures:none;fill:#d69015;stroke-width:0;stroke-miterlimit:2"
         id="path257604" /><path
         stroke-miterlimit="2"
         d="m 491.76,428.73 v 21.416 h -3.1117 v -3.1574 q -1.327,1.8304 -3.249,2.8829 -1.9219,1.0067 -4.2099,1.0067 -3.0659,0 -5.4912,-1.4643 -2.4253,-1.4643 -3.7981,-4.0726 -1.3728,-2.6083 -1.3728,-5.9488 0,-3.2947 1.327,-5.8573 1.3728,-2.6083 3.7523,-4.0726 2.4253,-1.4643 5.4912,-1.4643 2.3338,0 4.2557,1.0525 1.9677,1.0067 3.2947,2.8829 v -3.2032 z m -10.662,19.311 q 2.1965,0 3.8896,-1.0982 1.7389,-1.0982 2.6998,-3.0659 0.96096,-1.9677 0.96096,-4.4387 0,-2.471 -0.96096,-4.4387 -0.96096,-1.9677 -2.6998,-3.0659 -1.6931,-1.0982 -3.8896,-1.0982 -2.1507,0 -3.8438,1.0982 -1.6931,1.0982 -2.6541,3.0659 -0.96096,1.9219 -0.96096,4.393 0,2.5168 0.96096,4.4845 0.96096,1.9677 2.6541,3.0659 1.69314,1.0982 3.8438,1.0982 z"
         style="font-variant-ligatures:none;fill:#d69015;stroke-width:0;stroke-miterlimit:2"
         id="path257606" /><path
         stroke-miterlimit="2"
         d="m 522.82,428.73 h 3.1574 l -7.7792,21.416 h -3.432 l -7.7334,-21.416 h 3.249 l 6.3149,18.075 z"
         style="font-variant-ligatures:none;fill:#d69015;stroke-width:0;stroke-miterlimit:2"
         id="path257608" /><path
         stroke-miterlimit="2"
         d="m 549.56,428 q 2.8829,0 5.2166,1.4186 2.3338,1.4186 3.6608,3.8896 1.327,2.4253 1.327,5.4454 0,0.86944 -0.0458,1.327 h -17.618 q 0.18304,3.2947 2.1507,5.6285 1.96766,2.3338 5.3539,2.3338 2.7456,0 4.5302,-1.0067 1.8304,-1.0525 2.9286,-2.8829 l 2.471,1.6474 q -1.5101,2.3795 -3.9811,3.7523 -2.471,1.327 -5.8573,1.327 -3.1117,0 -5.537,-1.4643 -2.4253,-1.4643 -3.7981,-4.0726 -1.3728,-2.6083 -1.3728,-5.903 0,-3.2947 1.327,-5.903 1.3728,-2.6083 3.7523,-4.0726 2.4253,-1.4643 5.4912,-1.4643 z m 7.0928,9.5181 q -0.4576,-3.3405 -2.2422,-4.9878 -1.7846,-1.6931 -4.8506,-1.6931 -2.9744,0 -4.8963,1.9219 -1.8762,1.8762 -2.3795,4.759 z"
         style="font-variant-ligatures:none;fill:#d69015;stroke-width:0;stroke-miterlimit:2"
         id="path257610" /><path
         stroke-miterlimit="2"
         d="m 576.03,450.15 v -33.222 h 3.1117 v 33.222 z"
         style="font-variant-ligatures:none;fill:#d69015;stroke-width:0;stroke-miterlimit:2"
         id="path257612" /><path
         stroke-miterlimit="2"
         d="m 604.09,450.88 q -3.1117,0 -5.4912,-1.327 -2.3338,-1.327 -3.5693,-3.7523 l 2.7914,-1.3728 q 1.6931,3.615 6.6352,3.615 2.3795,0 3.9354,-0.86944 1.5558,-0.86944 1.5558,-2.6998 0,-1.8762 -1.2813,-2.7914 -1.2355,-0.9152 -4.393,-1.1898 -4.393,-0.36608 -6.3149,-1.9677 -1.8762,-1.6016 -1.8762,-4.2557 0,-2.9744 2.1507,-4.6218 2.1507,-1.6474 5.903,-1.6474 6.3606,0 8.6486,5.0336 l -2.7914,1.3728 q -0.77792,-1.8304 -2.288,-2.6998 -1.4643,-0.86944 -3.7981,-0.86944 -2.3795,0 -3.6608,0.86944 -1.2355,0.86944 -1.2355,2.471 0,1.5101 1.327,2.471 1.3728,0.9152 4.6675,1.1898 4.0726,0.36608 6.0403,2.0134 2.0134,1.6016 2.0134,4.2557 0,2.1507 -1.2355,3.7066 -1.2355,1.5101 -3.2947,2.288 -2.0592,0.77792 -4.4387,0.77792 z"
         style="font-variant-ligatures:none;fill:#d69015;stroke-width:0;stroke-miterlimit:2"
         id="path257614" /><path
         stroke-miterlimit="2"
         d="m 327.87,390.53 q -7.722,0 -15.032,-3.8095 -7.3102,-3.9125 -12.149,-10.502 l 6.2806,-5.5598 q 3.7066,5.8687 9.4723,9.3694 5.7658,3.3977 12.458,3.3977 7.3102,0 11.12,-3.1918 3.8095,-3.2947 3.8095,-8.8546 0,-6.0746 -4.1184,-9.2664 -4.0154,-3.2947 -12.87,-5.7658 -22.239,-5.4569 -22.239,-20.18 0,-9.1634 5.9717,-14.106 5.9717,-4.9421 16.577,-4.9421 7.722,0 13.797,2.8829 6.1776,2.8829 11.017,8.8546 l -6.0746,5.148 q -3.7066,-5.045 -8.1338,-7.4131 -4.4273,-2.471 -10.605,-2.471 -6.4865,0 -10.605,3.0888 -4.1184,2.9858 -4.1184,8.2368 0,5.3539 3.8095,8.5457 3.8095,3.0888 12.87,5.251 10.708,2.8829 16.577,7.9279 5.9717,5.045 5.9717,14.208 0,5.6628 -2.8829,9.9871 -2.8829,4.3243 -8.3398,6.7954 -5.3539,2.3681 -12.561,2.3681 z"
         style="font-variant-ligatures:none;fill:#b60806;stroke-width:0;stroke-miterlimit:2"
         id="path257617" /><path
         stroke-miterlimit="2"
         d="m 378.13,388.88 v -48.185 h 7.0013 v 48.185 z m 3.5006,-57.555 q -2.3681,0 -4.0154,-1.6474 -1.5444,-1.6474 -1.5444,-4.0154 0,-2.2651 1.5444,-3.8095 1.6474,-1.6474 4.0154,-1.6474 2.2651,0 3.9125,1.6474 1.6474,1.5444 1.6474,3.9125 0,2.2651 -1.6474,3.9125 -1.6474,1.6474 -3.9125,1.6474 z"
         style="font-variant-ligatures:none;fill:#bb1f09;stroke-width:0;stroke-miterlimit:2"
         id="path257619" /><path
         stroke-miterlimit="2"
         d="m 464.58,339.05 q 6.6924,0 11.12,4.7362 4.4273,4.6332 4.4273,12.87 v 32.226 h -7.0013 v -29.138 q 0,-7.619 -2.8829,-10.914 -2.8829,-3.3977 -7.5161,-3.3977 -5.6628,0 -8.8546,4.4273 -3.0888,4.3243 -3.6036,11.84 v 27.181 h -7.0013 v -29.138 q 0,-7.619 -2.8829,-10.914 -2.8829,-3.3977 -7.5161,-3.3977 -6.2806,0 -9.4723,5.251 -3.0888,5.251 -3.0888,14.106 v 24.093 h -7.0013 v -48.185 h 7.0013 v 7.5161 q 2.3681,-4.4273 5.9717,-6.7954 3.7066,-2.3681 8.4427,-2.3681 5.251,0 9.1634,2.8829 3.9125,2.7799 5.4569,8.0309 2.2651,-5.148 6.1776,-8.0309 3.9125,-2.8829 9.0605,-2.8829 z"
         style="font-variant-ligatures:none;fill:#c1350b;stroke-width:0;stroke-miterlimit:2"
         id="path257621" /><path
         stroke-miterlimit="2"
         d="m 507.79,388.88 v -48.185 h 7.0013 v 48.185 z m 3.5006,-57.555 q -2.3681,0 -4.0154,-1.6474 -1.5444,-1.6474 -1.5444,-4.0154 0,-2.2651 1.5444,-3.8095 1.6474,-1.6474 4.0154,-1.6474 2.2651,0 3.9125,1.6474 1.6474,1.5444 1.6474,3.9125 0,2.2651 -1.6474,3.9125 -1.6474,1.6474 -3.9125,1.6474 z"
         style="font-variant-ligatures:none;fill:#c64c0e;stroke-width:0;stroke-miterlimit:2"
         id="path257623" /><path
         stroke-miterlimit="2"
         d="m 635.77,339.05 q 5.045,0 9.2664,2.0592 4.3243,2.0592 6.7954,6.0746 2.574,4.0154 2.574,9.4723 v 32.226 h -7.0013 v -29.138 q 0,-14.311 -12.767,-14.311 -7.4131,0 -11.12,5.251 -3.7066,5.251 -3.7066,14.106 v 24.093 h -7.0013 v -48.185 h 7.0013 v 8.0309 q 2.471,-4.6332 6.4865,-7.1042 4.1184,-2.574 9.4723,-2.574 z"
         style="font-variant-ligatures:none;fill:#d17913;stroke-width:0;stroke-miterlimit:2"
         id="path257627" /><path
         stroke-miterlimit="2"
         d="m 700.35,339.05 q 6.4865,0 11.737,3.1918 5.251,3.1918 8.2368,8.7516 2.9858,5.4569 2.9858,12.252 0,1.9562 -0.10296,2.9858 h -39.64 q 0.41184,7.4131 4.8391,12.664 4.4273,5.251 12.046,5.251 6.1776,0 10.193,-2.2651 4.1184,-2.3681 6.5894,-6.4865 l 5.5598,3.7066 q -3.3977,5.3539 -8.9575,8.4427 -5.5598,2.9858 -13.179,2.9858 -7.0013,0 -12.458,-3.2947 -5.4569,-3.2947 -8.5457,-9.1634 -3.0888,-5.8687 -3.0888,-13.282 0,-7.4131 2.9858,-13.282 3.0888,-5.8687 8.4427,-9.1634 5.4569,-3.2947 12.355,-3.2947 z m 15.959,21.416 q -1.0296,-7.5161 -5.045,-11.223 -4.0154,-3.8095 -10.914,-3.8095 -6.6924,0 -11.017,4.3243 -4.2214,4.2214 -5.3539,10.708 z"
         style="font-variant-ligatures:none;fill:#d69015;stroke-width:0;stroke-miterlimit:2"
         id="path257629" /><path
         style="fill:#cb6210;stroke-width:0.25740001"
         d="m 565.57,340.22 c -0.28337,10e-4 -0.65689,0.007 -0.83007,0.0132 -0.17297,0.006 -0.43371,0.018 -0.5794,0.0268 -0.14569,0.009 -0.39048,0.0256 -0.54389,0.0375 -0.15341,0.0119 -0.40463,0.0342 -0.5583,0.0495 -0.15341,0.0153 -0.36268,0.0381 -0.46512,0.0504 -0.10219,0.0123 -0.32767,0.0416 -0.5009,0.0651 -0.17298,0.0235 -0.48855,0.0717 -0.70116,0.10704 -0.21261,0.0354 -0.55058,0.0968 -0.75135,0.13655 -0.20077,0.0398 -0.50656,0.10432 -0.67979,0.1434 -0.17323,0.0391 -0.43089,0.10002 -0.57246,0.13552 -0.14157,0.0353 -0.37658,0.0968 -0.52227,0.13624 -0.14568,0.0396 -0.41621,0.11694 -0.60128,0.17174 -0.18482,0.055 -0.53591,0.1663 -0.77992,0.24759 -0.24401,0.0813 -0.60852,0.20938 -0.81004,0.28479 -0.20151,0.0753 -0.5009,0.19134 -0.66548,0.25789 -0.16444,0.0664 -0.42477,0.17517 -0.57833,0.24172 -0.15342,0.0664 -0.41748,0.18433 -0.58677,0.26203 -0.16916,0.0776 -0.51364,0.24501 -0.76551,0.37194 -0.25188,0.12694 -0.5932,0.30512 -0.7585,0.39586 -0.1653,0.0909 -0.44222,0.2473 -0.61524,0.34777 -0.17317,0.10047 -0.4757,0.28309 -0.67248,0.40587 -0.19679,0.12279 -0.51249,0.32687 -0.70142,0.45338 -0.18905,0.12652 -0.45954,0.31285 -0.60123,0.41403 -0.14169,0.10118 -0.37354,0.27107 -0.51522,0.37753 -0.14168,0.10633 -0.3316,0.25131 -0.42218,0.32216 -0.0904,0.0708 -0.26433,0.20952 -0.38641,0.30842 -0.12194,0.0987 -0.35377,0.2931 -0.51521,0.43179 -0.16129,0.13867 -0.37066,0.32172 -0.46513,0.40674 -0.0944,0.0849 -0.3107,0.28523 -0.48043,0.4451 -0.16974,0.15971 -0.46268,0.44708 -0.65117,0.63858 -0.18834,0.19149 -0.45769,0.47357 -0.59851,0.62685 -0.14082,0.15342 -0.37266,0.4133 -0.51521,0.57776 -0.14254,0.16443 -0.35465,0.41559 -0.47128,0.55814 -0.11663,0.14255 -0.28465,0.35249 -0.37338,0.4667 -0.0887,0.11406 -0.23857,0.31055 -0.33302,0.43649 -0.0943,0.12594 -0.25432,0.34492 -0.3555,0.48659 -0.10118,0.14169 -0.28767,0.41218 -0.41446,0.60108 -0.12666,0.18891 -0.33061,0.50448 -0.45311,0.70126 -0.1225,0.19679 -0.29052,0.47372 -0.3731,0.6154 -0.0827,0.14168 -0.21481,0.37353 -0.29354,0.51521 -0.0787,0.14168 -0.2161,0.39601 -0.30525,0.5653 -0.0892,0.16916 -0.23241,0.45253 -0.31843,0.6297 -0.0861,0.17703 -0.21982,0.46155 -0.29724,0.63215 -0.0774,0.17045 -0.1965,0.44093 -0.26448,0.60108 -0.0681,0.16 -0.16158,0.38541 -0.20766,0.5009 -0.0461,0.11535 -0.14483,0.37295 -0.21925,0.57246 -0.0744,0.19936 -0.18433,0.50692 -0.24416,0.68353 -0.0598,0.17646 -0.15012,0.45338 -0.20064,0.61539 -0.0505,0.16186 -0.13138,0.4322 -0.17961,0.6008 -0.0484,0.16844 -0.13539,0.49359 -0.19363,0.72272 -0.0581,0.22899 -0.13782,0.56116 -0.17689,0.73833 -0.0391,0.17703 -0.10033,0.47014 -0.13582,0.65117 -0.0356,0.18104 -0.0872,0.46111 -0.11463,0.62255 -0.0275,0.16129 -0.0661,0.40285 -0.086,0.53668 -0.0199,0.13381 -0.0552,0.39786 -0.0787,0.58677 -0.0233,0.18891 -0.0525,0.44007 -0.0646,0.55814 -0.0122,0.11807 -0.0318,0.32731 -0.0436,0.46512 -0.012,0.13768 -0.0313,0.40502 -0.0432,0.59393 -0.0117,0.18891 -0.0279,0.53024 -0.0358,0.7585 -0.008,0.22827 -0.0143,0.61138 -0.0143,0.85153 0,0.24001 0.006,0.62327 0.0143,0.85154 0.008,0.22826 0.024,0.5696 0.0358,0.7585 0.0119,0.18891 0.0312,0.45611 0.0432,0.59393 0.0119,0.13767 0.0315,0.34705 0.0436,0.46512 0.012,0.11807 0.0412,0.36924 0.0646,0.55814 0.0235,0.18892 0.0588,0.45295 0.0787,0.58677 0.0199,0.13382 0.0585,0.37524 0.086,0.53668 0.0275,0.16129 0.079,0.44152 0.11463,0.62255 0.0355,0.18104 0.0939,0.46111 0.12952,0.62255 0.0358,0.16129 0.1029,0.44651 0.14941,0.63372 0.0464,0.18719 0.11378,0.44795 0.14984,0.57961 0.0361,0.13166 0.1102,0.38914 0.16473,0.57217 0.0545,0.18305 0.14168,0.46327 0.19377,0.62255 0.0519,0.15929 0.14583,0.43421 0.20852,0.61081 0.0627,0.17661 0.17231,0.47285 0.24358,0.65833 0.0711,0.18548 0.18977,0.48044 0.26347,0.6556 0.0737,0.17517 0.18648,0.43593 0.2506,0.57961 0.064,0.14368 0.19649,0.42862 0.29423,0.63328 0.0978,0.20465 0.26204,0.5331 0.36523,0.72988 0.10318,0.19679 0.23556,0.44466 0.29439,0.55099 0.0587,0.10619 0.18103,0.32201 0.27176,0.47944 0.0907,0.15742 0.24258,0.41173 0.33732,0.5653 0.0947,0.15342 0.24916,0.39815 0.34319,0.54383 0.094,0.14555 0.24845,0.3774 0.34332,0.51522 0.0949,0.13767 0.237,0.34061 0.31586,0.45081 0.0787,0.11019 0.24973,0.34203 0.37997,0.51521 0.13024,0.17317 0.34263,0.44679 0.47212,0.60823 0.12952,0.16129 0.32559,0.39959 0.43578,0.52953 0.1102,0.12995 0.26834,0.31312 0.35148,0.40731 0.0831,0.0942 0.26034,0.29065 0.39372,0.4365 0.13324,0.14597 0.45524,0.47799 0.71557,0.73804 0.26018,0.26002 0.59249,0.58203 0.73848,0.71557 0.14584,0.13353 0.34219,0.31099 0.4365,0.39413 0.0942,0.0831 0.27735,0.24129 0.40731,0.35164 0.12995,0.11019 0.36896,0.30684 0.53125,0.43678 0.16244,0.13009 0.42319,0.33302 0.57961,0.45096 0.15657,0.11793 0.3651,0.27236 0.4634,0.34319 0.0985,0.0709 0.2433,0.17403 0.32201,0.22942 0.0787,0.0554 0.28908,0.19793 0.46741,0.31699 0.17832,0.11892 0.46327,0.30326 0.63313,0.4096 0.17002,0.10633 0.43935,0.26978 0.59894,0.36308 0.15943,0.0935 0.40574,0.23428 0.54741,0.313 0.14169,0.0789 0.41975,0.22813 0.61813,0.33189 0.19821,0.10376 0.5298,0.26963 0.73703,0.36852 0.20709,0.0989 0.51277,0.24015 0.67923,0.31414 0.16644,0.0738 0.45282,0.19606 0.63614,0.27163 0.18347,0.0756 0.45652,0.18462 0.60695,0.24229 0.15055,0.0577 0.42777,0.15957 0.61611,0.22641 0.18848,0.0668 0.49403,0.17016 0.67895,0.22955 0.18504,0.0595 0.43606,0.13768 0.55814,0.17389 0.12208,0.0362 0.36036,0.10376 0.52953,0.15012 0.1693,0.0462 0.42362,0.11321 0.5653,0.1487 0.14168,0.0355 0.39987,0.0967 0.57374,0.1361 0.17403,0.0392 0.48229,0.10405 0.68523,0.14412 0.20293,0.0399 0.52123,0.098 0.70713,0.12909 0.1859,0.031 0.47328,0.0757 0.63858,0.0992 0.1653,0.0235 0.43907,0.0591 0.60824,0.0791 0.1693,0.0199 0.44622,0.0491 0.61539,0.0648 0.1693,0.0156 0.44293,0.0381 0.60823,0.0498 0.1653,0.0117 0.42935,0.0282 0.58677,0.0365 0.15743,0.008 0.5729,0.0189 0.92309,0.0238 0.38456,0.005 0.82391,0.002 1.1091,-0.008 0.25974,-0.009 0.58175,-0.0229 0.71557,-0.0308 0.13381,-0.008 0.36566,-0.024 0.51521,-0.0358 0.14956,-0.0119 0.37182,-0.0311 0.49375,-0.0428 0.12207,-0.0117 0.30882,-0.0312 0.41503,-0.0435 0.10633,-0.0122 0.31557,-0.0382 0.46512,-0.0577 0.14955,-0.0195 0.41688,-0.0578 0.59392,-0.0853 0.17718,-0.0273 0.48044,-0.0786 0.67421,-0.11392 0.19363,-0.0353 0.48659,-0.0927 0.65117,-0.12737 0.16444,-0.0348 0.3731,-0.0801 0.46355,-0.10104 0.0905,-0.0207 0.33202,-0.0799 0.53668,-0.13138 0.20466,-0.0515 0.52996,-0.13839 0.72273,-0.1932 0.19292,-0.0547 0.473,-0.13754 0.62255,-0.18391 0.14955,-0.0465 0.42648,-0.13667 0.61539,-0.20064 0.18891,-0.0638 0.53024,-0.18619 0.75851,-0.27176 0.22826,-0.0854 0.54713,-0.20981 0.70841,-0.27635 0.16144,-0.0664 0.42219,-0.17703 0.57962,-0.24573 0.15742,-0.0687 0.4757,-0.21424 0.70728,-0.32329 0.23156,-0.1092 0.59866,-0.29125 0.81575,-0.40458 0.21711,-0.11349 0.5268,-0.28008 0.68808,-0.37038 0.16144,-0.0903 0.40615,-0.23041 0.54384,-0.31155 0.13782,-0.0812 0.37925,-0.22784 0.53668,-0.32602 0.15742,-0.0982 0.45696,-0.29239 0.66548,-0.43164 0.20866,-0.13911 0.49519,-0.33575 0.63686,-0.43694 0.14168,-0.10103 0.37354,-0.27091 0.51521,-0.37724 0.14168,-0.10634 0.36394,-0.27694 0.49374,-0.3791 0.12995,-0.10233 0.33918,-0.27107 0.46513,-0.37495 0.12594,-0.10405 0.33531,-0.28121 0.46512,-0.39401 0.12995,-0.11263 0.33258,-0.29209 0.45037,-0.39886 0.11778,-0.10691 0.35349,-0.32744 0.52394,-0.4903 0.1703,-0.16272 0.46111,-0.45253 0.6463,-0.64401 0.18505,-0.19135 0.41905,-0.43807 0.51995,-0.54827 0.1009,-0.11019 0.27177,-0.30139 0.37998,-0.42476 0.10819,-0.12336 0.30556,-0.35521 0.4385,-0.51521 0.13296,-0.16 0.32531,-0.39714 0.42749,-0.52695 0.10219,-0.12995 0.26549,-0.34219 0.36294,-0.47171 0.0973,-0.12952 0.26033,-0.35163 0.36208,-0.49374 0.10176,-0.14197 0.29925,-0.42891 0.43879,-0.63743 0.13968,-0.20866 0.31084,-0.46942 0.38039,-0.57961 0.0695,-0.1102 0.20007,-0.32273 0.29009,-0.47228 0.09,-0.14955 0.21352,-0.35892 0.27464,-0.46512 0.061,-0.10634 0.159,-0.28021 0.21782,-0.38641 0.0588,-0.10634 0.19135,-0.35421 0.29439,-0.55099 0.10305,-0.19678 0.26119,-0.51236 0.35135,-0.70126 0.0903,-0.18891 0.21367,-0.45295 0.27434,-0.58677 0.0607,-0.13381 0.17818,-0.4043 0.26118,-0.60108 0.0829,-0.19678 0.21038,-0.51236 0.28322,-0.70126 0.0729,-0.18891 0.1872,-0.49805 0.25417,-0.68695 0.0668,-0.18891 0.17031,-0.49488 0.2297,-0.67979 0.0595,-0.18505 0.13682,-0.43336 0.17203,-0.552 0.0352,-0.11864 0.0995,-0.34404 0.14282,-0.5009 0.0434,-0.15685 0.1112,-0.41403 0.1507,-0.57145 0.0395,-0.15743 0.1039,-0.4285 0.14326,-0.60237 0.0392,-0.17403 0.10405,-0.48229 0.14412,-0.68523 0.0399,-0.20293 0.098,-0.52123 0.12923,-0.70712 0.0312,-0.18591 0.0759,-0.47329 0.0992,-0.63859 0.0235,-0.1653 0.059,-0.43907 0.079,-0.60823 0.0199,-0.16931 0.0489,-0.44294 0.0645,-0.60824 0.0155,-0.1653 0.0379,-0.43907 0.05,-0.60824 0.0119,-0.1693 0.0296,-0.45266 0.0394,-0.6297 0.0104,-0.18934 0.0178,-0.68466 0.0178,-1.2022 0,-0.5175 -0.007,-1.0128 -0.0178,-1.2022 -0.01,-0.17718 -0.0275,-0.46054 -0.0394,-0.6297 -0.012,-0.16931 -0.0345,-0.44294 -0.05,-0.60824 -0.0156,-0.1653 -0.0446,-0.43907 -0.0645,-0.60824 -0.02,-0.1693 -0.0555,-0.44293 -0.079,-0.60823 -0.0233,-0.1653 -0.068,-0.45267 -0.0992,-0.63859 -0.0312,-0.1859 -0.0893,-0.50419 -0.12923,-0.70713 -0.0401,-0.20293 -0.1049,-0.51119 -0.14412,-0.68522 -0.0394,-0.17388 -0.10047,-0.43207 -0.13596,-0.57375 -0.0353,-0.14168 -0.0967,-0.37667 -0.13624,-0.52236 -0.0396,-0.14569 -0.11678,-0.41604 -0.17174,-0.60108 -0.0548,-0.18505 -0.1673,-0.53869 -0.24988,-0.78613 -0.0824,-0.2473 -0.22025,-0.63714 -0.30612,-0.86612 -0.0859,-0.22899 -0.21038,-0.54814 -0.27678,-0.70942 -0.0664,-0.16115 -0.17861,-0.4252 -0.24931,-0.58649 -0.0707,-0.16143 -0.18218,-0.40932 -0.24788,-0.55099 -0.0655,-0.14168 -0.2201,-0.45725 -0.34319,-0.70126 -0.12307,-0.24401 -0.29812,-0.57889 -0.38885,-0.7442 -0.0907,-0.16529 -0.24716,-0.44221 -0.34762,-0.61539 -0.10047,-0.17317 -0.27305,-0.45969 -0.3834,-0.63686 -0.11034,-0.17703 -0.29225,-0.46054 -0.40429,-0.6297 -0.11192,-0.16931 -0.28266,-0.42046 -0.3791,-0.55815 -0.0966,-0.13782 -0.30556,-0.42432 -0.4644,-0.63686 -0.15886,-0.21252 -0.40487,-0.53137 -0.54685,-0.70841 -0.14197,-0.17718 -0.37712,-0.46054 -0.52265,-0.62971 -0.1454,-0.1693 -0.33403,-0.38496 -0.41905,-0.47943 -0.085,-0.0944 -0.28538,-0.31071 -0.44522,-0.48044 -0.15972,-0.16973 -0.44724,-0.46267 -0.63872,-0.65117 -0.19148,-0.18834 -0.46926,-0.45382 -0.6174,-0.59006 -0.14812,-0.1361 -0.36695,-0.3329 -0.48615,-0.43722 -0.11936,-0.10447 -0.31729,-0.27392 -0.43979,-0.37652 -0.12251,-0.10276 -0.3479,-0.28652 -0.5009,-0.40845 -0.15299,-0.12179 -0.39887,-0.31256 -0.54641,-0.42375 -0.14755,-0.1112 -0.38914,-0.28809 -0.53668,-0.39313 -0.14755,-0.10505 -0.37781,-0.26533 -0.51163,-0.35635 -0.13381,-0.091 -0.37854,-0.25231 -0.54384,-0.35835 -0.16529,-0.10619 -0.46154,-0.28965 -0.65832,-0.40772 -0.19679,-0.11821 -0.50263,-0.29539 -0.6798,-0.39372 -0.17703,-0.0985 -0.46038,-0.25188 -0.6297,-0.34103 -0.16916,-0.0892 -0.44937,-0.23098 -0.62255,-0.315 -0.17503,-0.0911 -0.42728,-0.21146 -0.56628,-0.27457 -0.13642,-0.063 -0.34749,-0.15655 -0.46589,-0.20793 -0.11841,-0.0514 -0.31146,-0.13367 -0.42986,-0.18263 -0.11583,-0.0491 -0.34492,-0.14054 -0.50708,-0.20321 -0.16216,-0.0627 -0.44015,-0.16716 -0.62291,-0.23228 -0.18018,-0.065 -0.47619,-0.167 -0.65637,-0.22654 -0.18104,-0.0595 -0.45796,-0.14698 -0.61539,-0.19435 -0.15742,-0.0474 -0.40216,-0.11821 -0.54383,-0.15742 -0.14169,-0.0392 -0.41318,-0.1102 -0.60322,-0.15786 -0.1902,-0.0477 -0.47356,-0.11521 -0.6297,-0.15027 -0.15628,-0.0351 -0.4129,-0.0896 -0.57032,-0.12122 -0.15743,-0.0315 -0.43377,-0.0834 -0.61411,-0.11535 -0.18046,-0.0319 -0.50561,-0.0837 -0.72273,-0.11506 -0.21724,-0.0313 -0.53009,-0.073 -0.69539,-0.0926 -0.1653,-0.0196 -0.47758,-0.0518 -0.6941,-0.0714 -0.21639,-0.0197 -0.55128,-0.0456 -0.7442,-0.0575 -0.19277,-0.0119 -0.5374,-0.0281 -0.76566,-0.0359 -0.22827,-0.008 -0.64687,-0.0135 -0.93024,-0.0123 z m -1.6458,1.9747 0.086,-0.002 0.8157,1.6315 c 0.44868,0.89732 0.8189,1.6315 0.82291,1.6315 0.004,0 0.37439,-0.7349 0.82291,-1.6331 l 0.81575,-1.633 0.15743,0.009 c 0.0866,0.005 0.32172,0.0253 0.52237,0.0446 0.20079,0.0193 0.49703,0.0514 0.65832,0.0714 0.16144,0.0199 0.44152,0.0587 0.62255,0.086 0.18104,0.0273 0.45797,0.0726 0.61539,0.10061 0.15743,0.0279 0.41189,0.0763 0.5653,0.10748 0.15357,0.0312 0.42075,0.0892 0.59393,0.12895 0.17317,0.0398 0.31928,0.0766 0.32486,0.0819 0.005,0.005 -0.0724,0.31529 -0.17302,0.68924 -0.15786,0.58677 -0.17975,0.68124 -0.16015,0.68996 0.0125,0.006 0.21811,0.0624 0.45712,0.12609 0.239,0.0637 0.43665,0.11363 0.43923,0.11106 0.003,-0.003 0.0866,-0.31043 0.18662,-0.6841 0.10003,-0.37366 0.1829,-0.68108 0.18433,-0.6828 10e-4,-0.002 0.12107,0.0322 0.2662,0.0759 0.14512,0.0435 0.40229,0.12465 0.57145,0.18032 0.16916,0.0557 0.45897,0.15571 0.64402,0.22255 0.18505,0.0667 0.48759,0.18118 0.67264,0.25431 0.18504,0.0731 0.44908,0.18133 0.58677,0.24043 0.13782,0.059 0.35348,0.15371 0.47943,0.21038 0.12594,0.0567 0.45439,0.21467 0.72988,0.35107 0.2755,0.13639 0.59035,0.29639 0.69982,0.35565 0.10934,0.0592 0.20423,0.11306 0.21095,0.11978 0.007,0.007 -0.14555,0.28551 -0.33833,0.61969 -0.19277,0.33419 -0.35047,0.61182 -0.35047,0.61697 -1.5e-4,0.005 0.17946,0.11306 0.39899,0.23971 0.21954,0.1268 0.40546,0.23042 0.41303,0.23042 0.008,0 0.17088,-0.27349 0.36293,-0.60767 0.19192,-0.33431 0.35506,-0.60796 0.36237,-0.60824 0.007,-2.8e-4 0.11363,0.0618 0.23614,0.13796 0.1225,0.0763 0.36136,0.22999 0.53053,0.34162 0.1693,0.11149 0.42046,0.28209 0.55814,0.37882 0.13782,0.0967 0.37612,0.26934 0.52953,0.38355 0.15356,0.11421 0.3854,0.29138 0.51521,0.39372 0.12995,0.10233 0.3489,0.27979 0.48659,0.39429 0.13782,0.11449 0.37611,0.31858 0.52952,0.45353 0.15356,0.13496 0.33704,0.29882 0.40788,0.3641 0.0708,0.0653 0.18547,0.17359 0.25488,0.24086 l 0.12609,0.12208 -0.4946,0.49474 c -0.27207,0.27208 -0.49459,0.50106 -0.49459,0.50891 0,0.008 0.1464,0.16072 0.32543,0.33974 0.17904,0.17918 0.33189,0.32574 0.3399,0.32574 0.008,0 0.23699,-0.22254 0.50906,-0.49459 l 0.49474,-0.4946 0.14226,0.14798 c 0.0781,0.0814 0.22941,0.24444 0.33603,0.36222 0.10648,0.11778 0.26119,0.29153 0.34348,0.38597 0.0824,0.0944 0.21453,0.24902 0.29367,0.34347 0.0791,0.0945 0.23943,0.29081 0.35606,0.4365 0.11664,0.14555 0.32301,0.4129 0.45853,0.59393 0.13539,0.18104 0.3253,0.4418 0.4219,0.57961 0.0965,0.13767 0.26062,0.37925 0.36466,0.53668 0.10405,0.15742 0.25874,0.39786 0.34392,0.5341 0.13023,0.20895 0.15141,0.25088 0.13466,0.26649 -0.0109,0.0102 -0.2855,0.17145 -0.61024,0.35835 -0.32474,0.18691 -0.59035,0.34577 -0.59035,0.35321 0,0.007 0.10391,0.19363 0.23085,0.41418 0.15857,0.27534 0.23685,0.39858 0.25016,0.39341 0.0107,-0.004 0.28808,-0.16272 0.61653,-0.35249 l 0.59706,-0.34504 0.0192,0.026 c 0.0106,0.0144 0.0859,0.1517 0.16716,0.30525 0.0814,0.15342 0.20908,0.40144 0.28365,0.55099 0.0747,0.14955 0.19836,0.40674 0.27493,0.57132 0.0766,0.16473 0.20709,0.45781 0.28993,0.65117 0.0829,0.19349 0.19893,0.47413 0.25777,0.62368 0.059,0.14956 0.16358,0.42649 0.23241,0.6154 0.069,0.18891 0.17088,0.482 0.2267,0.65117 0.0557,0.16916 0.1401,0.43606 0.18762,0.59307 0.0475,0.15686 0.0849,0.28638 0.0831,0.28752 -0.002,10e-4 -0.30883,0.0839 -0.68221,0.18375 -0.37354,0.0997 -0.68137,0.18391 -0.68422,0.18677 -0.003,0.003 0.0482,0.20637 0.11363,0.45225 0.0654,0.24587 0.12651,0.44996 0.13581,0.45354 0.009,0.004 0.30827,-0.0716 0.6642,-0.16701 0.35593,-0.0953 0.6599,-0.17475 0.67565,-0.17647 0.0207,-0.002 0.0321,0.009 0.0409,0.0399 0.007,0.0236 0.0538,0.2297 0.10462,0.45797 0.0507,0.22827 0.12093,0.5696 0.15613,0.75851 0.0352,0.18891 0.0869,0.48831 0.11478,0.66548 0.0279,0.17703 0.0668,0.44108 0.0864,0.58677 0.0195,0.14554 0.0517,0.41603 0.0714,0.60108 0.0197,0.1849 0.0457,0.45423 0.0578,0.59835 0.012,0.14411 0.0219,0.28265 0.0219,0.30769 v 0.0458 l -1.6293,0.81622 c -0.89733,0.44867 -1.6315,0.81889 -1.6315,0.8229 0,0.004 0.73475,0.37439 1.6328,0.82291 l 1.633,0.81576 -0.01,0.14311 c -0.005,0.0787 -0.022,0.27835 -0.0374,0.44365 -0.0152,0.1653 -0.0441,0.43892 -0.0641,0.60824 -0.02,0.16916 -0.0588,0.4617 -0.0861,0.64988 -0.0275,0.1882 -0.0693,0.45552 -0.0927,0.59393 -0.0236,0.13853 -0.0777,0.42561 -0.12022,0.63814 -0.0426,0.21253 -0.10762,0.51836 -0.14454,0.6798 -0.0369,0.16129 -0.0711,0.29768 -0.076,0.30311 -0.005,0.005 -0.3147,-0.0726 -0.68867,-0.17302 -0.45182,-0.12136 -0.68281,-0.17732 -0.68896,-0.16702 -0.005,0.008 -0.0621,0.21382 -0.12694,0.45624 -0.0648,0.2423 -0.11535,0.44309 -0.11235,0.44608 0.003,0.003 0.31128,0.0872 0.6851,0.18719 0.37382,0.0999 0.68108,0.18276 0.6828,0.18419 0.002,0.002 -0.0452,0.16015 -0.10433,0.35248 -0.059,0.19249 -0.1464,0.46585 -0.19406,0.60752 -0.0478,0.14168 -0.13195,0.38327 -0.18719,0.53668 -0.0551,0.15342 -0.15986,0.43034 -0.23271,0.61539 -0.073,0.1849 -0.17918,0.44579 -0.23599,0.57961 -0.057,0.13381 -0.15829,0.36567 -0.22527,0.51521 -0.067,0.14956 -0.22368,0.478 -0.34821,0.72989 -0.12451,0.25188 -0.28221,0.561 -0.35034,0.68695 -0.0683,0.12594 -0.12881,0.23399 -0.13453,0.24014 -0.006,0.006 -0.28366,-0.14697 -0.6174,-0.34005 -0.33375,-0.1932 -0.61266,-0.34919 -0.61982,-0.34677 -0.007,0.002 -0.11793,0.1862 -0.2463,0.40873 l -0.23327,0.40445 0.0403,0.0242 c 0.0223,0.0135 0.29854,0.17245 0.61395,0.35348 0.31542,0.18104 0.57375,0.33447 0.57403,0.3409 2.6e-4,0.007 -0.0746,0.1321 -0.16644,0.27908 -0.0917,0.14712 -0.26821,0.41861 -0.39184,0.60365 -0.1238,0.18491 -0.29969,0.44108 -0.39084,0.56917 -0.0913,0.12808 -0.25417,0.35019 -0.36208,0.49374 -0.10791,0.14354 -0.28322,0.37037 -0.38942,0.50419 -0.10619,0.13382 -0.27393,0.3399 -0.37282,0.45797 -0.0989,0.11807 -0.26705,0.31442 -0.37395,0.4365 -0.10677,0.12193 -0.30412,0.3409 -0.43851,0.48659 -0.13438,0.14555 -0.26304,0.28237 -0.28579,0.30383 l -0.0415,0.0389 -0.49318,-0.49331 c -0.27135,-0.27148 -0.49977,-0.49346 -0.50762,-0.49346 -0.008,0 -0.16086,0.14641 -0.3399,0.32543 -0.17918,0.17904 -0.32574,0.33202 -0.32574,0.34005 0,0.008 0.22198,0.23643 0.49347,0.50778 l 0.4933,0.49318 -0.0389,0.0415 c -0.0215,0.0228 -0.15815,0.15141 -0.30384,0.28579 -0.14555,0.13438 -0.3645,0.33174 -0.48659,0.43851 -0.12193,0.1069 -0.31843,0.27505 -0.4365,0.37395 -0.11807,0.0989 -0.32414,0.26661 -0.45796,0.37282 -0.13381,0.10633 -0.3721,0.2898 -0.52953,0.40787 -0.15742,0.11807 -0.38597,0.28551 -0.50805,0.37225 -0.12193,0.0866 -0.3764,0.26062 -0.5653,0.38657 -0.18891,0.12594 -0.45354,0.29768 -0.58821,0.38167 -0.13453,0.0842 -0.25045,0.15256 -0.25761,0.15227 -0.007,-2.5e-4 -0.17002,-0.27392 -0.36221,-0.60823 -0.19206,-0.33418 -0.35594,-0.60767 -0.36394,-0.60767 -0.008,0 -0.19378,0.10361 -0.41274,0.23027 -0.21897,0.12651 -0.39815,0.23442 -0.39815,0.23971 0,0.005 0.15786,0.28281 0.35079,0.61684 0.19291,0.33403 0.34589,0.61225 0.33989,0.61812 -0.006,0.006 -0.10748,0.063 -0.22555,0.1268 -0.11807,0.0638 -0.39814,0.2078 -0.62254,0.31987 -0.22441,0.1122 -0.56888,0.27678 -0.76567,0.36594 -0.19678,0.0892 -0.49487,0.21925 -0.66247,0.28909 -0.16758,0.0698 -0.41876,0.17145 -0.55814,0.22583 -0.1394,0.0542 -0.37254,0.14183 -0.51823,0.19464 -0.14569,0.0527 -0.41603,0.14626 -0.60108,0.20794 -0.18504,0.0615 -0.46484,0.15085 -0.62198,0.19836 -0.15714,0.0474 -0.28666,0.085 -0.28767,0.0833 -10e-4,-0.002 -0.0839,-0.3087 -0.1839,-0.68237 -0.10004,-0.37366 -0.18433,-0.6818 -0.18734,-0.68481 -0.003,-0.003 -0.20379,0.0475 -0.44622,0.11221 -0.24258,0.0647 -0.44796,0.12164 -0.4564,0.12665 -0.0102,0.006 0.0471,0.24129 0.16744,0.68896 0.10061,0.37382 0.17832,0.68394 0.17274,0.68908 -0.005,0.005 -0.13882,0.0386 -0.29624,0.0743 -0.15743,0.0358 -0.37954,0.0844 -0.49374,0.10834 -0.11407,0.0238 -0.32659,0.0657 -0.47228,0.093 -0.14569,0.0273 -0.36137,0.0661 -0.47944,0.086 -0.11806,0.0199 -0.37238,0.0585 -0.5653,0.0859 -0.19277,0.0275 -0.49547,0.0661 -0.67263,0.086 -0.17704,0.02 -0.47329,0.0492 -0.65833,0.0651 -0.1849,0.0158 -0.35565,0.0288 -0.37925,0.0288 l -0.0431,1.4e-4 -0.8156,-1.6315 c -0.44867,-0.89733 -0.81889,-1.6315 -0.82291,-1.6315 -0.004,0 -0.37423,0.73418 -0.82291,1.6315 -0.70769,1.4157 -0.81976,1.6315 -0.84682,1.6315 -0.017,0 -0.15241,-0.01 -0.30054,-0.0219 -0.14826,-0.0119 -0.3628,-0.0313 -0.47698,-0.0431 -0.11407,-0.0116 -0.36523,-0.0408 -0.55815,-0.0645 -0.19278,-0.0239 -0.47614,-0.0628 -0.6297,-0.0866 -0.15342,-0.0239 -0.42247,-0.0687 -0.59794,-0.0997 -0.17532,-0.0311 -0.45869,-0.0854 -0.62971,-0.12079 -0.17088,-0.0352 -0.42677,-0.0909 -0.56844,-0.12351 -0.14168,-0.0326 -0.26232,-0.0634 -0.2679,-0.0684 -0.006,-0.005 0.0704,-0.31056 0.16916,-0.67908 0.0987,-0.36852 0.17646,-0.67778 0.17288,-0.68723 -0.004,-0.009 -0.20723,-0.071 -0.45225,-0.13653 -0.24516,-0.0657 -0.4488,-0.11621 -0.45266,-0.11235 -0.004,0.004 -0.0877,0.3087 -0.18648,0.67738 -0.0987,0.3688 -0.18233,0.67493 -0.18562,0.68036 -0.003,0.005 -0.11735,-0.0242 -0.25317,-0.0655 -0.13581,-0.0415 -0.34046,-0.10533 -0.45454,-0.14183 -0.11406,-0.0366 -0.33946,-0.11234 -0.5009,-0.1683 -0.16144,-0.056 -0.41061,-0.14583 -0.55385,-0.19979 -0.14326,-0.0539 -0.37181,-0.14254 -0.50806,-0.19706 -0.1361,-0.0544 -0.38926,-0.16001 -0.56244,-0.23457 -0.17317,-0.0746 -0.46942,-0.20766 -0.65833,-0.29567 -0.18891,-0.088 -0.50005,-0.24015 -0.69137,-0.33805 -0.19135,-0.098 -0.42476,-0.22039 -0.51879,-0.27207 -0.094,-0.0518 -0.17088,-0.0963 -0.17088,-0.099 0,-0.003 0.15871,-0.27964 0.35264,-0.61524 0.20179,-0.34935 0.34705,-0.61555 0.33989,-0.62255 -0.007,-0.007 -0.18304,-0.11034 -0.39127,-0.23027 -0.20823,-0.11979 -0.38927,-0.22068 -0.40229,-0.22412 -0.0182,-0.005 -0.10304,0.13153 -0.37066,0.59606 -0.19077,0.3313 -0.35263,0.60582 -0.35964,0.61025 -0.007,0.004 -0.13352,-0.0677 -0.28121,-0.16001 -0.14769,-0.0923 -0.40373,-0.25804 -0.56903,-0.36823 -0.1653,-0.1102 -0.42291,-0.28736 -0.57246,-0.39357 -0.14955,-0.10633 -0.40386,-0.29281 -0.5653,-0.41459 -0.16129,-0.12165 -0.38669,-0.29596 -0.5009,-0.38713 -0.11406,-0.0913 -0.28479,-0.23041 -0.37925,-0.30914 -0.0945,-0.0788 -0.27148,-0.22984 -0.39357,-0.33547 -0.12193,-0.10576 -0.28623,-0.25059 -0.36494,-0.32185 -0.0787,-0.0713 -0.23528,-0.21625 -0.34805,-0.32201 l -0.20494,-0.19249 0.49474,-0.49487 c 0.27208,-0.2722 0.49475,-0.50134 0.49475,-0.50919 0,-0.008 -0.14984,-0.16401 -0.33289,-0.34705 l -0.33274,-0.33259 -0.50047,0.50062 -0.50033,0.50046 -0.0415,-0.0389 c -0.0228,-0.0215 -0.15142,-0.15828 -0.28579,-0.30383 -0.13439,-0.14569 -0.33174,-0.36466 -0.43851,-0.48659 -0.10691,-0.12208 -0.27506,-0.31843 -0.37395,-0.4365 -0.0989,-0.11807 -0.26662,-0.32414 -0.37282,-0.45797 -0.10619,-0.13381 -0.28152,-0.36064 -0.38942,-0.50419 -0.10791,-0.14355 -0.27079,-0.36566 -0.36209,-0.49375 -0.0912,-0.12808 -0.26705,-0.38427 -0.39083,-0.56916 -0.12365,-0.18505 -0.3001,-0.45652 -0.39184,-0.60365 -0.0919,-0.14698 -0.16673,-0.27249 -0.16644,-0.27908 2.8e-4,-0.006 0.25861,-0.15985 0.57402,-0.3409 0.31542,-0.18104 0.59164,-0.34005 0.61395,-0.35348 l 0.0405,-0.0243 -0.23414,-0.40458 c -0.12866,-0.22254 -0.23943,-0.40643 -0.24601,-0.4086 -0.007,-0.002 -0.28538,0.15371 -0.61941,0.34662 -0.33418,0.19277 -0.61238,0.34576 -0.61812,0.33989 -0.006,-0.006 -0.0628,-0.10733 -0.12666,-0.2254 -0.0638,-0.11807 -0.2078,-0.3983 -0.31987,-0.62255 -0.11206,-0.2244 -0.25102,-0.51091 -0.30883,-0.63686 -0.0578,-0.12594 -0.16629,-0.37065 -0.241,-0.54383 -0.0747,-0.17317 -0.18719,-0.4435 -0.25016,-0.6008 -0.063,-0.15728 -0.16487,-0.42234 -0.22655,-0.58906 -0.0618,-0.16673 -0.17017,-0.47601 -0.24087,-0.68723 -0.0708,-0.21124 -0.1673,-0.51264 -0.21467,-0.66978 -0.0472,-0.15714 -0.0847,-0.28667 -0.083,-0.28796 0.002,-0.001 0.30869,-0.084 0.68252,-0.18404 0.37382,-0.10004 0.68193,-0.18419 0.68466,-0.18691 0.003,-0.003 -0.0479,-0.20351 -0.11264,-0.44607 -0.0648,-0.24272 -0.12164,-0.44824 -0.12651,-0.45668 -0.006,-0.0103 -0.23914,0.0464 -0.68867,0.1673 -0.37382,0.10047 -0.68394,0.17832 -0.68896,0.17288 -0.005,-0.005 -0.0384,-0.13868 -0.074,-0.29611 -0.0358,-0.15743 -0.0846,-0.37969 -0.10848,-0.49375 -0.0249,-0.11583 -0.0671,-0.32947 -0.0949,-0.47361 -0.0278,-0.14672 -0.0729,-0.40412 -0.10018,-0.574 -0.0273,-0.16989 -0.0658,-0.42214 -0.0854,-0.56371 -0.0196,-0.14157 -0.052,-0.40412 -0.0717,-0.58172 -0.0197,-0.17504 -0.0456,-0.42729 -0.0575,-0.55599 -0.0117,-0.13127 -0.0256,-0.30116 -0.0306,-0.38095 l -0.009,-0.14311 1.633,-0.81576 c 0.8982,-0.44852 1.6331,-0.81889 1.6331,-0.82291 0,-0.004 -0.73418,-0.37423 -1.6315,-0.8229 l -1.6314,-0.8139 1.5e-4,-0.0502 c 0,-0.0275 0.013,-0.20151 0.0289,-0.38641 0.0159,-0.18505 0.0451,-0.478 0.065,-0.65117 0.0197,-0.17317 0.0554,-0.45339 0.0789,-0.62255 0.0236,-0.16931 0.069,-0.46227 0.10075,-0.65117 0.0318,-0.18891 0.0862,-0.48744 0.12093,-0.66335 0.0346,-0.17588 0.099,-0.47858 0.14312,-0.67264 0.0441,-0.19406 0.0847,-0.35763 0.0903,-0.3635 0.006,-0.006 0.18705,0.0369 0.40317,0.095 0.2161,0.0581 0.52023,0.13968 0.67593,0.18133 0.16902,0.0451 0.28796,0.0703 0.29511,0.0624 0.007,-0.007 0.0648,-0.21181 0.12938,-0.45468 0.0644,-0.24286 0.11449,-0.44422 0.11134,-0.44751 -0.003,-0.003 -0.11163,-0.0342 -0.24072,-0.069 -0.12909,-0.0346 -0.43107,-0.11564 -0.67119,-0.18004 -0.24001,-0.0644 -0.44052,-0.12122 -0.44538,-0.12637 -0.005,-0.005 0.0163,-0.093 0.0472,-0.19535 0.0308,-0.10233 0.10462,-0.33733 0.16401,-0.52237 0.0594,-0.18505 0.16859,-0.50504 0.24273,-0.71143 0.074,-0.20623 0.18862,-0.5122 0.25446,-0.67979 0.0658,-0.16759 0.18762,-0.46299 0.27047,-0.65647 0.0829,-0.19335 0.21339,-0.48644 0.28996,-0.65117 0.0766,-0.16459 0.20022,-0.42175 0.27493,-0.57133 0.0746,-0.14955 0.20222,-0.39758 0.28366,-0.55099 0.0813,-0.15356 0.15656,-0.29094 0.1673,-0.30556 l 0.0193,-0.0263 0.59935,0.3462 c 0.32945,0.19049 0.6068,0.34934 0.61624,0.35292 0.0102,0.004 0.10963,-0.15399 0.24788,-0.39356 0.12694,-0.21997 0.23084,-0.40644 0.23084,-0.41431 0,-0.008 -0.13682,-0.0936 -0.30412,-0.19035 -0.1673,-0.0967 -0.43935,-0.25417 -0.60466,-0.35006 -0.1786,-0.10347 -0.29997,-0.18247 -0.29909,-0.19449 8.5e-4,-0.0113 0.0615,-0.11678 0.13495,-0.23456 0.0733,-0.11779 0.22469,-0.35277 0.33648,-0.52193 0.11163,-0.16931 0.28208,-0.42047 0.37868,-0.55815 0.0968,-0.13782 0.28652,-0.39858 0.42191,-0.57961 0.13524,-0.18104 0.34203,-0.44909 0.45953,-0.59565 0.11736,-0.14655 0.31084,-0.38155 0.43007,-0.52237 0.11917,-0.1408 0.30811,-0.35907 0.42007,-0.48494 0.11192,-0.12594 0.29725,-0.32772 0.41174,-0.44837 l 0.20838,-0.21939 0.49503,0.49487 c 0.27207,0.27233 0.50116,0.49499 0.50914,0.49499 0.008,0 0.16386,-0.1497 0.34689,-0.33259 l 0.3329,-0.33274 -0.50175,-0.50191 -0.50175,-0.5019 0.14798,-0.14226 c 0.0814,-0.0781 0.24444,-0.22941 0.36221,-0.33603 0.11779,-0.10648 0.29153,-0.26119 0.38597,-0.34348 0.0945,-0.0823 0.2652,-0.22726 0.37926,-0.32229 0.1142,-0.0949 0.30412,-0.24973 0.42218,-0.34404 0.11807,-0.0943 0.29524,-0.23284 0.39357,-0.30798 0.0985,-0.0751 0.29809,-0.22325 0.44365,-0.32916 0.14569,-0.1059 0.37797,-0.27048 0.51635,-0.36551 0.13839,-0.095 0.37024,-0.24973 0.51521,-0.34363 0.14498,-0.0939 0.33861,-0.21696 0.43019,-0.27364 0.0916,-0.0567 0.17217,-0.10276 0.1789,-0.10247 0.007,4.4e-4 0.16944,0.27405 0.36136,0.60824 0.19192,0.33418 0.35549,0.60767 0.3635,0.60767 0.008,0 0.19421,-0.10376 0.4139,-0.2307 0.28293,-0.16344 0.39714,-0.23657 0.39171,-0.25088 -0.004,-0.011 -0.16258,-0.28868 -0.35207,-0.61697 l -0.34433,-0.59693 0.0256,-0.0188 c 0.014,-0.0103 0.15127,-0.0854 0.30469,-0.16673 0.15341,-0.0814 0.3854,-0.20107 0.51521,-0.26605 0.12995,-0.0648 0.34934,-0.1713 0.48787,-0.23642 0.13839,-0.0651 0.36237,-0.16759 0.49789,-0.2277 0.13539,-0.06 0.38597,-0.1673 0.55686,-0.23828 0.17088,-0.071 0.50075,-0.20036 0.7329,-0.28752 0.23213,-0.0872 0.60252,-0.21839 0.8229,-0.29181 0.2204,-0.0733 0.51951,-0.16888 0.66477,-0.21238 0.14526,-0.0434 0.26491,-0.0776 0.26604,-0.0759 0.001,0.002 0.0839,0.30883 0.18376,0.68237 0.10004,0.37354 0.18405,0.68137 0.18691,0.68422 0.003,0.003 0.20065,-0.0471 0.43951,-0.11105 0.23886,-0.0638 0.44466,-0.11908 0.45712,-0.1228 0.0195,-0.006 -0.004,-0.10848 -0.16015,-0.6898 -0.10075,-0.37568 -0.1786,-0.68724 -0.17317,-0.69226 0.006,-0.005 0.0809,-0.0256 0.16745,-0.0459 0.0866,-0.0203 0.27336,-0.0624 0.41503,-0.0937 0.14168,-0.0312 0.41218,-0.0861 0.60108,-0.12193 0.18891,-0.0358 0.45941,-0.0842 0.60108,-0.10748 0.14106,-0.0235 0.34698,-0.0555 0.4574,-0.0716 0.11017,-0.0159 0.32896,-0.0449 0.48649,-0.0647 0.15753,-0.0196 0.42136,-0.0488 0.58687,-0.065 0.16525,-0.0162 0.36165,-0.0348 0.43629,-0.0415 0.0749,-0.007 0.17478,-0.013 0.22188,-0.014 z m 16.02,9.487 c -0.003,1.5e-4 -2.3977,1.8352 -5.322,4.0777 l -5.3153,4.0772 -0.0798,-0.044 c -0.0432,-0.0245 -0.14956,-0.0827 -0.23614,-0.12967 -0.0866,-0.0469 -0.24115,-0.12379 -0.34347,-0.17102 -0.10233,-0.0471 -0.27936,-0.12293 -0.39357,-0.16859 -0.11406,-0.0455 -0.30726,-0.11463 -0.42934,-0.1537 -0.12193,-0.0391 -0.27236,-0.083 -0.33418,-0.0975 -0.0862,-0.0203 -0.11493,-0.0333 -0.12308,-0.0558 -0.006,-0.016 -0.39313,-1.6699 -0.8607,-3.6752 -0.46769,-2.0052 -0.85338,-3.6458 -0.8574,-3.6458 -0.004,0 -0.3897,1.6405 -0.85724,3.6458 -0.46757,2.0052 -0.85483,3.6587 -0.86054,3.6744 -0.008,0.0219 -0.0421,0.0366 -0.14455,0.0625 -0.0738,0.0188 -0.22426,0.0628 -0.33446,0.098 -0.1102,0.0352 -0.30657,0.10562 -0.4365,0.15657 -0.1298,0.051 -0.37138,0.15929 -0.53668,0.24058 -0.1653,0.0814 -0.40028,0.20823 -0.52237,0.2818 -0.12193,0.0737 -0.30684,0.19363 -0.4106,0.26648 -0.10376,0.073 -0.25632,0.18648 -0.33889,0.25246 -0.0826,0.066 -0.15671,0.12393 -0.16487,0.12894 -0.008,0.005 -0.57359,-0.3635 -1.2568,-0.81876 -0.68309,-0.45524 -1.2511,-0.8332 -1.2621,-0.83995 -0.0149,-0.009 -0.017,-0.007 -0.008,0.008 0.007,0.011 0.38484,0.57933 0.84036,1.2628 0.73776,1.1068 0.82621,1.2457 0.80945,1.2687 -0.0103,0.0142 -0.074,0.0957 -0.14154,0.18118 -0.0677,0.0854 -0.17503,0.22941 -0.23872,0.31987 -0.0637,0.0905 -0.17832,0.26762 -0.2546,0.39357 -0.0763,0.12594 -0.20508,0.36422 -0.28622,0.52952 -0.0812,0.1653 -0.18935,0.40674 -0.24029,0.53668 -0.051,0.1298 -0.12251,0.32945 -0.15914,0.44365 -0.0365,0.11407 -0.0794,0.25946 -0.0955,0.32286 -0.0159,0.0635 -0.0336,0.12308 -0.0394,0.13224 -0.006,0.009 -1.6603,0.40172 -3.677,0.87215 -2.0166,0.47042 -3.6664,0.8584 -3.6664,0.86241 0,0.004 1.6498,0.392 3.6664,0.86242 2.0166,0.47043 3.6713,0.86312 3.6772,0.87256 0.006,0.01 0.0215,0.0627 0.0348,0.11793 0.0133,0.0554 0.0611,0.21324 0.10619,0.35107 0.0451,0.13767 0.11449,0.33145 0.15427,0.43063 0.0396,0.099 0.1112,0.26332 0.15886,0.36494 0.0477,0.10161 0.12451,0.2556 0.17059,0.34219 0.0461,0.0866 0.10376,0.19277 0.12809,0.23614 l 0.0444,0.0787 -4.0716,5.3096 c -2.2394,2.9202 -4.0757,5.3161 -4.0806,5.3238 -0.005,0.008 2.8e-4,0.007 0.0117,-0.002 0.0113,-0.009 2.2038,-1.6893 4.8721,-3.7346 2.6685,-2.0454 5.0546,-3.8746 5.3024,-4.0651 l 0.45081,-0.34649 0.0787,0.0442 c 0.0434,0.0243 0.14955,0.0819 0.23614,0.12794 0.0866,0.0461 0.24114,0.12322 0.34347,0.17117 0.10233,0.0481 0.25689,0.11606 0.34347,0.15127 0.0866,0.0351 0.2798,0.10419 0.42935,0.15356 0.14955,0.0495 0.31714,0.10075 0.37253,0.11406 0.0553,0.0132 0.1082,0.0288 0.1175,0.0345 0.009,0.006 0.40201,1.6606 0.87256,3.6772 0.47071,2.0168 0.85897,3.6667 0.86283,3.6667 0.004,0 0.3897,-1.6405 0.8574,-3.6458 0.46754,-2.0052 0.85483,-3.6587 0.86054,-3.6744 0.008,-0.0219 0.0418,-0.0366 0.1444,-0.0625 0.0738,-0.0187 0.22426,-0.0628 0.33447,-0.098 0.1102,-0.0352 0.30669,-0.10591 0.4365,-0.157 0.12995,-0.0512 0.33575,-0.14097 0.4574,-0.1995 0.12165,-0.0584 0.29225,-0.14569 0.37925,-0.19392 0.0869,-0.0482 0.22569,-0.12966 0.30826,-0.1809 0.0827,-0.0512 0.23199,-0.15012 0.3319,-0.21996 0.0999,-0.0697 0.24916,-0.18061 0.33173,-0.24659 0.0826,-0.066 0.15671,-0.12394 0.16487,-0.12895 0.008,-0.005 0.57359,0.3635 1.2568,0.81877 0.68309,0.45524 1.2511,0.8332 1.2621,0.83995 0.0149,0.009 0.017,0.007 0.008,-0.008 -0.007,-0.011 -0.38469,-0.5789 -0.83995,-1.2621 -0.53225,-0.79858 -0.82376,-1.2484 -0.8166,-1.26 0.006,-0.01 0.0598,-0.0789 0.11936,-0.15328 0.0595,-0.0744 0.15771,-0.20436 0.21825,-0.2888 0.0605,-0.0844 0.15413,-0.22283 0.20794,-0.3077 0.054,-0.0849 0.13839,-0.2244 0.18777,-0.31011 0.0494,-0.0857 0.13953,-0.25761 0.20064,-0.38198 0.061,-0.12423 0.14498,-0.30842 0.18648,-0.40932 0.0417,-0.1009 0.11249,-0.28981 0.15743,-0.41961 0.0449,-0.12995 0.10318,-0.31671 0.12923,-0.41504 0.0262,-0.0985 0.0514,-0.18361 0.0561,-0.18934 0.005,-0.006 0.46569,-0.11706 1.0243,-0.2473 0.55859,-0.13037 1.1509,-0.26847 1.3162,-0.30713 0.1653,-0.0385 0.49704,-0.11592 0.73704,-0.17188 0.24014,-0.056 0.52666,-0.12308 0.63686,-0.14898 0.11019,-0.0259 0.9716,-0.22684 1.9142,-0.44651 0.94255,-0.21968 1.7138,-0.40258 1.7138,-0.40659 0,-0.004 -1.6407,-0.3897 -3.6458,-0.85725 -2.0052,-0.46756 -3.6587,-0.85495 -3.6744,-0.86069 -0.0219,-0.008 -0.0365,-0.0417 -0.0624,-0.1444 -0.0185,-0.0738 -0.0711,-0.24687 -0.11693,-0.38456 -0.0458,-0.13782 -0.12522,-0.35119 -0.17646,-0.47428 -0.0514,-0.12322 -0.1444,-0.32602 -0.20694,-0.45081 -0.0625,-0.1248 -0.14669,-0.28438 -0.18705,-0.35436 l -0.0733,-0.12752 0.0839,-0.10862 c 0.0461,-0.0598 1.8759,-2.4465 4.0662,-5.3037 2.1902,-2.8574 3.9887,-5.2031 3.9966,-5.2129 0.008,-0.01 0.012,-0.0177 0.009,-0.0174 z m -14.216,8.1066 c 0.36466,0.004 0.5032,0.011 0.6798,0.0349 0.12207,0.0166 0.29266,0.0434 0.37925,0.0595 0.0866,0.016 0.24759,0.0518 0.35779,0.0794 0.11019,0.0275 0.29052,0.0794 0.40072,0.11521 0.11019,0.0358 0.27892,0.0962 0.37495,0.1341 0.0962,0.0379 0.25889,0.10905 0.3618,0.15814 0.1029,0.0489 0.18534,0.0945 0.18304,0.10118 -0.002,0.007 -0.63799,0.49833 -1.413,1.0924 l -1.4091,1.0804 h -0.11792 c -0.0648,0 -0.19392,0.01 -0.2868,0.022 -0.0929,0.012 -0.24258,0.0384 -0.33259,0.0585 -0.0902,0.0202 -0.24787,0.0657 -0.35063,0.10133 -0.10275,0.0355 -0.26419,0.10189 -0.35863,0.14755 -0.0945,0.0455 -0.2297,0.11936 -0.30054,0.16401 -0.0708,0.0446 -0.18991,0.12709 -0.26476,0.18304 -0.0747,0.056 -0.2091,0.17303 -0.29854,0.26005 -0.0893,0.087 -0.20422,0.20823 -0.25517,0.26919 -0.051,0.061 -0.14698,0.19206 -0.21324,0.29125 -0.0663,0.0992 -0.16158,0.26504 -0.21195,0.36852 -0.0504,0.10347 -0.12065,0.27235 -0.15614,0.37511 -0.0355,0.10276 -0.0809,0.26046 -0.10104,0.35063 -0.0202,0.09 -0.0465,0.23972 -0.0585,0.33259 -0.0122,0.0929 -0.022,0.22197 -0.022,0.28679 v 0.11793 l -1.0807,1.4091 c -0.59436,0.77495 -1.0858,1.4108 -1.0922,1.413 -0.006,0.002 -0.0511,-0.0783 -0.0992,-0.1789 -0.0481,-0.10046 -0.11936,-0.26332 -0.15829,-0.36164 -0.0388,-0.0985 -0.10003,-0.26906 -0.13581,-0.37926 -0.0358,-0.11019 -0.0877,-0.29052 -0.11521,-0.40072 -0.0276,-0.11019 -0.0634,-0.27119 -0.0796,-0.35778 -0.016,-0.0866 -0.0437,-0.26376 -0.0614,-0.39357 -0.0279,-0.20637 -0.0321,-0.29925 -0.0323,-0.73704 -1.5e-4,-0.39827 0.005,-0.54339 0.0256,-0.70841 0.0142,-0.11421 0.0417,-0.29452 0.0608,-0.40072 0.0193,-0.10634 0.0581,-0.28667 0.0861,-0.40072 0.0281,-0.11421 0.0886,-0.32029 0.13453,-0.45797 0.0458,-0.13782 0.12007,-0.33745 0.16487,-0.44365 0.0448,-0.10634 0.12894,-0.28667 0.18676,-0.40072 0.058,-0.11421 0.14684,-0.27635 0.1975,-0.36036 0.0507,-0.0842 0.13224,-0.21296 0.18147,-0.28623 0.0491,-0.0734 0.14411,-0.20623 0.21095,-0.29524 0.067,-0.0889 0.19091,-0.24029 0.27549,-0.33632 0.0846,-0.0959 0.23013,-0.2493 0.32358,-0.34062 0.0933,-0.0915 0.22841,-0.21724 0.3001,-0.27979 0.0717,-0.0624 0.20423,-0.16887 0.29452,-0.23671 0.0903,-0.0678 0.2473,-0.17789 0.34906,-0.24473 0.10176,-0.0667 0.24873,-0.15785 0.32672,-0.20265 0.078,-0.0448 0.21138,-0.11621 0.29652,-0.15885 0.085,-0.0426 0.2433,-0.1155 0.35192,-0.16187 0.10848,-0.0462 0.28294,-0.11392 0.3877,-0.15027 0.1049,-0.0364 0.28437,-0.0919 0.39886,-0.12322 0.1145,-0.0315 0.30569,-0.0761 0.42477,-0.0995 0.11921,-0.0233 0.29081,-0.0524 0.38126,-0.0647 0.0906,-0.0122 0.22898,-0.0282 0.30769,-0.0355 0.0787,-0.007 0.34919,-0.0109 0.60108,-0.008 z m 5.4311,3.3706 c 0.005,0 0.0484,0.0822 0.0962,0.18247 0.0478,0.10033 0.11893,0.26291 0.158,0.36137 0.0392,0.0983 0.10118,0.2722 0.13796,0.38641 0.0366,0.11406 0.0889,0.29539 0.11592,0.40285 0.0271,0.10734 0.0648,0.28451 0.0839,0.39357 0.0192,0.10905 0.0465,0.28836 0.061,0.39858 0.0212,0.16144 0.0262,0.29624 0.0259,0.69411 -2.6e-4,0.38625 -0.006,0.53897 -0.026,0.70126 -0.0142,0.11406 -0.0414,0.29439 -0.0605,0.40072 -0.0193,0.10619 -0.058,0.28651 -0.086,0.40072 -0.028,0.11406 -0.0884,0.32015 -0.13424,0.45796 -0.0458,0.13768 -0.12265,0.34247 -0.17074,0.45483 -0.0482,0.11249 -0.1225,0.27405 -0.16515,0.35907 -0.0426,0.0852 -0.11406,0.21854 -0.15871,0.29653 -0.0445,0.078 -0.14899,0.2443 -0.23199,0.36952 -0.083,0.12537 -0.22841,0.3243 -0.32301,0.44209 -0.0946,0.11778 -0.27177,0.3167 -0.39385,0.44193 -0.12193,0.12508 -0.29882,0.29338 -0.39284,0.37366 -0.0942,0.0804 -0.23986,0.19764 -0.32387,0.26062 -0.0839,0.063 -0.21667,0.15685 -0.2951,0.20866 -0.0786,0.0518 -0.21511,0.13711 -0.30368,0.18948 -0.0885,0.0525 -0.238,0.13396 -0.33231,0.18133 -0.0943,0.0472 -0.26332,0.12522 -0.37567,0.17331 -0.11249,0.0481 -0.31699,0.12494 -0.45483,0.17074 -0.13767,0.0458 -0.34376,0.10619 -0.45797,0.13424 -0.11406,0.028 -0.29438,0.0667 -0.40072,0.086 -0.10619,0.0192 -0.28651,0.0465 -0.40072,0.0605 -0.16415,0.0205 -0.31212,0.0258 -0.70841,0.0256 -0.39341,-1.4e-4 -0.54083,-0.005 -0.68695,-0.025 -0.10233,-0.0136 -0.27936,-0.0411 -0.39357,-0.0611 -0.11406,-0.02 -0.29438,-0.0582 -0.40072,-0.0849 -0.10619,-0.0268 -0.2855,-0.0783 -0.39827,-0.11449 -0.11278,-0.0364 -0.2931,-0.10147 -0.40072,-0.14455 -0.10762,-0.0431 -0.27148,-0.11463 -0.36422,-0.159 -0.0926,-0.0442 -0.16673,-0.0857 -0.16458,-0.0922 0.002,-0.006 0.6383,-0.49788 1.4135,-1.0922 l 1.4097,-1.0808 h 0.10433 c 0.0575,0 0.16702,-0.007 0.24344,-0.015 0.0764,-0.008 0.21811,-0.0309 0.3147,-0.0504 0.0967,-0.0193 0.2609,-0.0631 0.36494,-0.0975 0.10404,-0.0342 0.26033,-0.094 0.34718,-0.13281 0.0869,-0.0388 0.22612,-0.1112 0.30942,-0.16072 0.0833,-0.0497 0.2214,-0.14183 0.30713,-0.20508 0.0877,-0.0647 0.24372,-0.20308 0.35722,-0.31699 0.11077,-0.1112 0.24716,-0.26348 0.30296,-0.33817 0.0558,-0.0748 0.13796,-0.19392 0.18261,-0.26476 0.0446,-0.0708 0.11521,-0.19965 0.15686,-0.28623 0.0418,-0.0866 0.0989,-0.21925 0.12708,-0.29496 0.0282,-0.0756 0.0703,-0.20565 0.0937,-0.28896 0.0233,-0.0833 0.056,-0.23127 0.0724,-0.32888 0.0165,-0.0976 0.0349,-0.26375 0.0408,-0.36936 l 0.0109,-0.19192 1.0792,-1.4061 c 0.59349,-0.77338 1.0834,-1.4061 1.0885,-1.4061 z m -5.5395,0.43192 c 0.0276,-0.001 0.12737,0.004 0.22183,0.0126 0.0945,0.008 0.23284,0.0282 0.30741,0.0442 0.0747,0.0162 0.19821,0.0505 0.27449,0.0766 0.0764,0.0259 0.19878,0.0767 0.2722,0.11263 0.0734,0.0361 0.18176,0.0968 0.24072,0.13496 0.0591,0.0381 0.15571,0.10834 0.21481,0.15599 0.0591,0.0478 0.15729,0.13897 0.21797,0.20251 0.0608,0.0635 0.14855,0.16702 0.19506,0.2297 0.0465,0.0627 0.11678,0.17074 0.15628,0.24015 0.0395,0.0693 0.0894,0.16787 0.11091,0.21911 0.0215,0.0511 0.0572,0.14669 0.0794,0.21209 0.0223,0.0655 0.0534,0.17832 0.069,0.25045 0.0156,0.0723 0.0353,0.21353 0.0439,0.31385 0.0113,0.13209 0.0113,0.23285 0,0.36494 -0.009,0.10032 -0.0283,0.24158 -0.0439,0.31385 -0.0156,0.0721 -0.0467,0.1849 -0.069,0.25045 -0.0222,0.0654 -0.058,0.16086 -0.0794,0.21209 -0.0215,0.0511 -0.0714,0.14984 -0.11091,0.21911 -0.0395,0.0694 -0.10977,0.17746 -0.15628,0.24015 -0.0465,0.0627 -0.13424,0.16615 -0.19521,0.22998 -0.0608,0.0637 -0.16215,0.15729 -0.22512,0.20795 -0.063,0.0507 -0.17245,0.12823 -0.24329,0.17216 -0.0707,0.0441 -0.18247,0.10491 -0.24816,0.13511 -0.0657,0.0302 -0.17517,0.0736 -0.24329,0.0963 -0.0681,0.0228 -0.18677,0.0551 -0.26363,0.0717 -0.0767,0.0166 -0.22011,0.0371 -0.31843,0.0455 -0.12666,0.0107 -0.23084,0.0107 -0.35751,0 -0.0983,-0.008 -0.241,-0.0288 -0.31685,-0.0452 -0.0759,-0.0165 -0.18706,-0.0464 -0.24702,-0.0664 -0.0598,-0.02 -0.1653,-0.061 -0.23414,-0.0907 -0.0688,-0.0299 -0.17445,-0.0841 -0.23456,-0.12065 -0.06,-0.0363 -0.15829,-0.10232 -0.21811,-0.14626 -0.06,-0.0441 -0.17417,-0.14512 -0.25359,-0.22455 -0.0796,-0.0796 -0.18291,-0.19635 -0.22956,-0.25974 -0.0468,-0.0634 -0.11607,-0.16844 -0.15413,-0.23328 -0.0381,-0.065 -0.10004,-0.19392 -0.13768,-0.28638 -0.0375,-0.0926 -0.085,-0.23556 -0.10533,-0.31771 -0.0205,-0.0821 -0.0446,-0.20093 -0.0537,-0.26391 -0.009,-0.063 -0.0165,-0.20795 -0.0165,-0.32201 0,-0.1142 0.007,-0.25905 0.0165,-0.32201 0.009,-0.063 0.0332,-0.18175 0.0537,-0.26391 0.0203,-0.0821 0.0678,-0.22512 0.10533,-0.31771 0.0376,-0.0924 0.0996,-0.22139 0.13768,-0.28638 0.0381,-0.0648 0.10662,-0.16844 0.15227,-0.23013 0.0457,-0.0617 0.13281,-0.16415 0.19363,-0.22769 0.0607,-0.0636 0.15585,-0.15214 0.21138,-0.19693 0.0555,-0.0446 0.14569,-0.11063 0.20051,-0.14669 0.0548,-0.0361 0.1371,-0.0863 0.18275,-0.11135 0.0458,-0.0252 0.15285,-0.0737 0.23786,-0.1079 0.0851,-0.0342 0.21997,-0.0787 0.29969,-0.0988 0.0797,-0.0202 0.19807,-0.0432 0.26304,-0.0514 0.065,-0.008 0.14712,-0.0169 0.18247,-0.0195 0.0355,-0.003 0.087,-0.006 0.11449,-0.007 z m 0.0716,0.96244 c -0.11593,-0.004 -0.21554,10e-4 -0.28294,0.0142 -0.0571,0.0109 -0.14726,0.0332 -0.20036,0.0495 -0.053,0.0162 -0.1381,0.0508 -0.18934,0.0769 -0.0511,0.0259 -0.13166,0.0726 -0.17889,0.10376 -0.0472,0.0311 -0.13768,0.1082 -0.20079,0.17131 -0.0633,0.0631 -0.1424,0.15656 -0.17603,0.2078 -0.0335,0.0511 -0.0839,0.14097 -0.11192,0.19964 -0.0281,0.0587 -0.0676,0.16816 -0.0877,0.2433 -0.0319,0.11893 -0.0366,0.16558 -0.0366,0.3585 0,0.19292 0.005,0.23958 0.0366,0.35851 0.0202,0.0751 0.0597,0.18462 0.0877,0.2433 0.0281,0.0587 0.0784,0.14841 0.11192,0.19964 0.0336,0.0511 0.11277,0.14483 0.17603,0.20795 0.0631,0.0632 0.15685,0.1424 0.20794,0.17588 0.0512,0.0335 0.13167,0.0794 0.1789,0.10219 0.0472,0.0226 0.12551,0.0544 0.17388,0.0707 0.0485,0.0162 0.14426,0.0392 0.21295,0.0512 0.0687,0.012 0.17475,0.0217 0.23571,0.0217 0.061,0 0.16702,-0.01 0.23571,-0.0217 0.0687,-0.012 0.16444,-0.0349 0.21296,-0.051 0.0484,-0.016 0.14154,-0.0558 0.2068,-0.0883 0.0654,-0.0325 0.17145,-0.10133 0.23571,-0.15299 0.0643,-0.0517 0.15356,-0.13768 0.1985,-0.19134 0.0449,-0.0537 0.10748,-0.14111 0.13911,-0.19435 0.0316,-0.0532 0.0766,-0.14455 0.0996,-0.20308 0.0232,-0.0584 0.0542,-0.15771 0.0688,-0.22068 0.0192,-0.0819 0.0268,-0.16959 0.0268,-0.3077 0,-0.13811 -0.008,-0.22583 -0.0268,-0.3077 -0.0146,-0.063 -0.0456,-0.16229 -0.0688,-0.22068 -0.023,-0.0585 -0.068,-0.14984 -0.0996,-0.20308 -0.0316,-0.0532 -0.0942,-0.14068 -0.13911,-0.19435 -0.0449,-0.0537 -0.13453,-0.13996 -0.19907,-0.19177 -0.0645,-0.0519 -0.17704,-0.12436 -0.25003,-0.161 -0.0733,-0.0368 -0.19649,-0.0831 -0.27564,-0.10362 -0.10491,-0.027 -0.19078,-0.0385 -0.32201,-0.0426 z"
         id="icon" /></g></g></svg>
